<svg width="55" height="58" viewBox="0 0 55 58" fill="none" xmlns="http://www.w3.org/2000/svg">
<path d="M51.5909 25.3478V57H1V1H51.5909V15.6087" stroke="white" stroke-width="2" stroke-miterlimit="10" stroke-linejoin="round"/>
<path d="M46.7727 30.2175V52.1305L5.89399 52.1658L5.81812 5.86963H46.7727V10.7392" stroke="white" stroke-width="2" stroke-miterlimit="10" stroke-linejoin="round"/>
<path d="M32.3181 21.6958L34.3261 25.7534L38.3409 27.7828L34.3261 29.8121L32.3181 33.8697L30.3102 29.8121L26.2954 27.7828L30.3102 25.7534L32.3181 21.6958Z" stroke="white" stroke-width="2" stroke-miterlimit="10" stroke-linejoin="round"/>
<path d="M46.7727 13.1738L49.1818 18.0434L54 20.4782L49.1818 22.913L46.7727 27.7825L44.3636 22.913L39.5454 20.4782L44.3636 18.0434L46.7727 13.1738Z" stroke="white" stroke-width="2" stroke-miterlimit="10" stroke-linejoin="round"/>
<path d="M17.8637 9.52173L9.43188 18.0435" stroke="white" stroke-width="2" stroke-miterlimit="10" stroke-linejoin="round"/>
<path d="M23.8864 9.52173L9.43188 24.1304" stroke="white" stroke-width="2" stroke-miterlimit="10" stroke-linejoin="round"/>
</svg>
