<svg width="56" height="58" viewBox="0 0 56 58" fill="none" xmlns="http://www.w3.org/2000/svg">
<path d="M30.5713 37.4651H51.1427C51.8524 37.4651 52.4284 38.0485 52.4284 38.7674V42.6744" stroke="white" stroke-width="2" stroke-miterlimit="10" stroke-linecap="round" stroke-linejoin="round"/>
<path d="M47.3656 33.4188V29.6511L27.6144 34.0269C26.3647 34.1884 25.4287 35.2394 25.4287 36.4844V55.6976C25.4287 56.4165 26.0047 57 26.7144 57H51.143C51.8527 57 52.4287 56.4165 52.4287 55.6976V50.4883" stroke="white" stroke-width="2" stroke-miterlimit="10" stroke-linecap="round" stroke-linejoin="round"/>
<path d="M52.4285 42.6743C52.4285 42.6743 52.2447 43.9766 51.1428 43.9766H46C44.1743 43.9766 42.877 45.4079 42.877 47.209C42.877 49.0114 44.1743 50.4883 46 50.4883H52.4285C53.6461 50.4883 55 49.0844 55 47.8836V45.279C55 44.4064 54.6323 42.6743 52.4285 42.6743Z" stroke="white" stroke-width="2" stroke-miterlimit="10" stroke-linecap="round" stroke-linejoin="round"/>
<path d="M38.2857 25.8523V1H6.14286L1 6.2093V51.7907H20.3924" stroke="white" stroke-width="2" stroke-miterlimit="10" stroke-linecap="round" stroke-linejoin="round"/>
<path d="M8.71432 4.90698V8.81396H4.85718" stroke="white" stroke-width="2" stroke-miterlimit="10" stroke-linecap="round" stroke-linejoin="round"/>
<path d="M19 16.6279H10" stroke="white" stroke-width="2" stroke-miterlimit="10" stroke-linecap="round" stroke-linejoin="round"/>
<path d="M19 21.8372H10" stroke="white" stroke-width="2" stroke-miterlimit="10" stroke-linecap="round" stroke-linejoin="round"/>
<path d="M19 27.0466H10" stroke="white" stroke-width="2" stroke-miterlimit="10" stroke-linecap="round" stroke-linejoin="round"/>
<path d="M19 32.2559H10" stroke="white" stroke-width="2" stroke-miterlimit="10" stroke-linecap="round" stroke-linejoin="round"/>
<path d="M30.5716 16.6279H25.4287" stroke="white" stroke-width="2" stroke-miterlimit="10" stroke-linecap="round" stroke-linejoin="round"/>
<path d="M30.5716 21.8372H25.4287" stroke="white" stroke-width="2" stroke-miterlimit="10" stroke-linecap="round" stroke-linejoin="round"/>
<path d="M30.5716 27.0466H25.4287" stroke="white" stroke-width="2" stroke-miterlimit="10" stroke-linecap="round" stroke-linejoin="round"/>
</svg>
