<svg width="49" height="58" viewBox="0 0 49 58" fill="none" xmlns="http://www.w3.org/2000/svg">
<path d="M14.6053 48.2889H10.682C10.0265 48.2889 9.39692 48.0263 8.93311 47.5597L2.74889 41.3375C1.78292 40.3655 1.78292 38.7901 2.74889 37.8182L8.93311 31.5959C9.39692 31.1293 10.0265 30.8667 10.682 30.8667H45.5263C46.8918 30.8667 48 31.9817 48 33.3556V45.8C48 47.1739 46.8918 48.2889 45.5263 48.2889H22.0263" stroke="white" stroke-width="2" stroke-miterlimit="10" stroke-linecap="round"/>
<path d="M4.71045 29.748L27.8233 6.49309C28.7881 5.52118 30.3552 5.52118 31.3211 6.49309L40.078 15.3038C41.039 16.2707 41.0439 17.8387 40.0891 18.8119L31.921 27.1334" stroke="white" stroke-width="2" stroke-miterlimit="10" stroke-linecap="round"/>
<path d="M1 34.6V3.48889C1 2.11502 2.10821 1 3.47368 1H15.8421C17.2076 1 18.3158 2.11502 18.3158 3.48889V10.9556" stroke="white" stroke-width="2" stroke-miterlimit="10" stroke-linecap="round"/>
<path d="M9.65796 38.3335V40.8224" stroke="white" stroke-width="2" stroke-miterlimit="10" stroke-linecap="round"/>
<path d="M9.6579 39.5781C14.4395 39.5781 18.3158 43.4782 18.3158 48.2892C18.3158 53.1003 14.4395 57.0003 9.6579 57.0003C4.87626 57.0003 1 53.1003 1 48.2892C1 47.4243 1.12617 46.5893 1.35869 45.8003" stroke="white" stroke-width="2" stroke-miterlimit="10" stroke-linecap="round"/>
</svg>
