<svg width="58" height="53" viewBox="0 0 58 53" fill="none" xmlns="http://www.w3.org/2000/svg">
<path d="M29 11.2002V13.7502" stroke="white" stroke-width="2" stroke-miterlimit="10"/>
<path d="M21.3636 13.25L22.6364 15.4583" stroke="white" stroke-width="2" stroke-miterlimit="10"/>
<path d="M15.7738 18.8499L17.9782 20.1249" stroke="white" stroke-width="2" stroke-miterlimit="10"/>
<path d="M15.7738 34.15L17.9782 32.875" stroke="white" stroke-width="2" stroke-miterlimit="10"/>
<path d="M21.3636 39.7498L22.6364 37.5415" stroke="white" stroke-width="2" stroke-miterlimit="10"/>
<path d="M29 41.8V39.25" stroke="white" stroke-width="2" stroke-miterlimit="10"/>
<path d="M36.6364 39.7498L35.3636 37.5415" stroke="white" stroke-width="2" stroke-miterlimit="10"/>
<path d="M42.2262 34.15L40.0219 32.875" stroke="white" stroke-width="2" stroke-miterlimit="10"/>
<path d="M42.2262 18.8499L40.0219 20.1249" stroke="white" stroke-width="2" stroke-miterlimit="10"/>
<path d="M36.6364 13.25L35.3636 15.4583" stroke="white" stroke-width="2" stroke-miterlimit="10"/>
<path d="M23.9091 22.675L29 27.775L36.6363 20.125" stroke="white" stroke-width="2" stroke-miterlimit="10"/>
<path d="M41.9831 4.56236C38.1827 2.29923 33.7422 1 29 1C14.9415 1 3.54545 12.4164 3.54545 26.5V27.775H1L7.36364 36.7L12.4545 27.775H9.90909V26.5C9.90909 15.9379 18.4567 7.375 29 7.375C35.8002 7.375 41.7705 10.9374 45.1522 16.3013" stroke="white" stroke-width="2" stroke-miterlimit="10" stroke-linejoin="round"/>
<path d="M14.0492 47.141C18.248 50.1972 23.4127 52 29 52C43.0585 52 54.4545 40.5837 54.4545 26.5V25.225H57L50.6363 16.3L45.5454 25.225H48.0909V26.5C48.0909 37.0621 39.5432 45.625 29 45.625C22.1998 45.625 16.2294 42.0627 12.8478 36.6988" stroke="white" stroke-width="2" stroke-miterlimit="10" stroke-linejoin="round"/>
</svg>
